<mxfile host="app.diagrams.net" modified="2021-06-22T17:02:53.623Z" agent="5.0 (X11; Linux x86_64) AppleWebKit/537.36 (KHTML, like Gecko) Chrome/91.0.4472.114 Safari/537.36" etag="aaTKJOsSjWjvo5HwNjfv" version="14.8.0" type="github">
  <diagram id="scdaF51MDZCoZqfol6Kn" name="Page-1">
    <mxGraphModel dx="1386" dy="1026" grid="1" gridSize="10" guides="1" tooltips="1" connect="1" arrows="1" fold="1" page="1" pageScale="1" pageWidth="827" pageHeight="1169" math="0" shadow="0">
      <root>
        <mxCell id="0" />
        <mxCell id="1" parent="0" />
        <mxCell id="AeSqCJv2NYG8zxl52Ggx-17" style="edgeStyle=orthogonalEdgeStyle;rounded=0;orthogonalLoop=1;jettySize=auto;html=1;exitX=0.5;exitY=1;exitDx=0;exitDy=0;" parent="1" source="AeSqCJv2NYG8zxl52Ggx-2" target="AeSqCJv2NYG8zxl52Ggx-3" edge="1">
          <mxGeometry relative="1" as="geometry" />
        </mxCell>
        <mxCell id="AeSqCJv2NYG8zxl52Ggx-2" value="" style="ellipse;whiteSpace=wrap;html=1;aspect=fixed;" parent="1" vertex="1">
          <mxGeometry x="640" y="40" width="40" height="40" as="geometry" />
        </mxCell>
        <mxCell id="AeSqCJv2NYG8zxl52Ggx-18" value="" style="edgeStyle=orthogonalEdgeStyle;rounded=0;orthogonalLoop=1;jettySize=auto;html=1;" parent="1" source="AeSqCJv2NYG8zxl52Ggx-3" target="AeSqCJv2NYG8zxl52Ggx-7" edge="1">
          <mxGeometry relative="1" as="geometry" />
        </mxCell>
        <mxCell id="AeSqCJv2NYG8zxl52Ggx-3" value="" style="ellipse;whiteSpace=wrap;html=1;aspect=fixed;" parent="1" vertex="1">
          <mxGeometry x="640" y="120" width="40" height="40" as="geometry" />
        </mxCell>
        <mxCell id="AeSqCJv2NYG8zxl52Ggx-19" value="" style="edgeStyle=orthogonalEdgeStyle;rounded=0;orthogonalLoop=1;jettySize=auto;html=1;" parent="1" source="AeSqCJv2NYG8zxl52Ggx-7" target="AeSqCJv2NYG8zxl52Ggx-8" edge="1">
          <mxGeometry relative="1" as="geometry" />
        </mxCell>
        <mxCell id="AeSqCJv2NYG8zxl52Ggx-7" value="" style="ellipse;whiteSpace=wrap;html=1;aspect=fixed;" parent="1" vertex="1">
          <mxGeometry x="640" y="200" width="40" height="40" as="geometry" />
        </mxCell>
        <mxCell id="AeSqCJv2NYG8zxl52Ggx-20" value="" style="edgeStyle=orthogonalEdgeStyle;rounded=0;orthogonalLoop=1;jettySize=auto;html=1;" parent="1" source="AeSqCJv2NYG8zxl52Ggx-8" target="AeSqCJv2NYG8zxl52Ggx-9" edge="1">
          <mxGeometry relative="1" as="geometry" />
        </mxCell>
        <mxCell id="AeSqCJv2NYG8zxl52Ggx-8" value="" style="ellipse;whiteSpace=wrap;html=1;aspect=fixed;" parent="1" vertex="1">
          <mxGeometry x="640" y="280" width="40" height="40" as="geometry" />
        </mxCell>
        <mxCell id="AeSqCJv2NYG8zxl52Ggx-21" value="" style="edgeStyle=orthogonalEdgeStyle;rounded=0;orthogonalLoop=1;jettySize=auto;html=1;" parent="1" source="AeSqCJv2NYG8zxl52Ggx-9" target="AeSqCJv2NYG8zxl52Ggx-10" edge="1">
          <mxGeometry relative="1" as="geometry" />
        </mxCell>
        <mxCell id="AeSqCJv2NYG8zxl52Ggx-9" value="" style="ellipse;whiteSpace=wrap;html=1;aspect=fixed;" parent="1" vertex="1">
          <mxGeometry x="640" y="360" width="40" height="40" as="geometry" />
        </mxCell>
        <mxCell id="AeSqCJv2NYG8zxl52Ggx-22" value="" style="edgeStyle=orthogonalEdgeStyle;rounded=0;orthogonalLoop=1;jettySize=auto;html=1;" parent="1" source="AeSqCJv2NYG8zxl52Ggx-10" target="AeSqCJv2NYG8zxl52Ggx-11" edge="1">
          <mxGeometry relative="1" as="geometry" />
        </mxCell>
        <mxCell id="AeSqCJv2NYG8zxl52Ggx-10" value="" style="ellipse;whiteSpace=wrap;html=1;aspect=fixed;" parent="1" vertex="1">
          <mxGeometry x="640" y="440" width="40" height="40" as="geometry" />
        </mxCell>
        <mxCell id="AeSqCJv2NYG8zxl52Ggx-23" value="" style="edgeStyle=orthogonalEdgeStyle;rounded=0;orthogonalLoop=1;jettySize=auto;html=1;" parent="1" source="AeSqCJv2NYG8zxl52Ggx-11" target="AeSqCJv2NYG8zxl52Ggx-12" edge="1">
          <mxGeometry relative="1" as="geometry" />
        </mxCell>
        <mxCell id="AeSqCJv2NYG8zxl52Ggx-11" value="" style="ellipse;whiteSpace=wrap;html=1;aspect=fixed;" parent="1" vertex="1">
          <mxGeometry x="640" y="520" width="40" height="40" as="geometry" />
        </mxCell>
        <mxCell id="AeSqCJv2NYG8zxl52Ggx-24" value="" style="edgeStyle=orthogonalEdgeStyle;rounded=0;orthogonalLoop=1;jettySize=auto;html=1;" parent="1" source="AeSqCJv2NYG8zxl52Ggx-12" target="AeSqCJv2NYG8zxl52Ggx-13" edge="1">
          <mxGeometry relative="1" as="geometry" />
        </mxCell>
        <mxCell id="AeSqCJv2NYG8zxl52Ggx-12" value="" style="ellipse;whiteSpace=wrap;html=1;aspect=fixed;" parent="1" vertex="1">
          <mxGeometry x="640" y="600" width="40" height="40" as="geometry" />
        </mxCell>
        <mxCell id="AeSqCJv2NYG8zxl52Ggx-25" value="" style="edgeStyle=orthogonalEdgeStyle;rounded=0;orthogonalLoop=1;jettySize=auto;html=1;" parent="1" source="AeSqCJv2NYG8zxl52Ggx-13" target="AeSqCJv2NYG8zxl52Ggx-14" edge="1">
          <mxGeometry relative="1" as="geometry" />
        </mxCell>
        <mxCell id="AeSqCJv2NYG8zxl52Ggx-80" style="edgeStyle=orthogonalEdgeStyle;rounded=0;orthogonalLoop=1;jettySize=auto;html=1;exitX=1;exitY=0.5;exitDx=0;exitDy=0;entryX=1;entryY=0.5;entryDx=0;entryDy=0;" parent="1" source="AeSqCJv2NYG8zxl52Ggx-13" target="AeSqCJv2NYG8zxl52Ggx-63" edge="1">
          <mxGeometry relative="1" as="geometry" />
        </mxCell>
        <mxCell id="AeSqCJv2NYG8zxl52Ggx-13" value="" style="ellipse;whiteSpace=wrap;html=1;aspect=fixed;" parent="1" vertex="1">
          <mxGeometry x="640" y="680" width="40" height="40" as="geometry" />
        </mxCell>
        <mxCell id="AeSqCJv2NYG8zxl52Ggx-26" value="" style="edgeStyle=orthogonalEdgeStyle;rounded=0;orthogonalLoop=1;jettySize=auto;html=1;" parent="1" source="AeSqCJv2NYG8zxl52Ggx-14" target="AeSqCJv2NYG8zxl52Ggx-15" edge="1">
          <mxGeometry relative="1" as="geometry" />
        </mxCell>
        <mxCell id="AeSqCJv2NYG8zxl52Ggx-14" value="" style="ellipse;whiteSpace=wrap;html=1;aspect=fixed;" parent="1" vertex="1">
          <mxGeometry x="460" y="760" width="40" height="40" as="geometry" />
        </mxCell>
        <mxCell id="AeSqCJv2NYG8zxl52Ggx-27" value="" style="edgeStyle=orthogonalEdgeStyle;rounded=0;orthogonalLoop=1;jettySize=auto;html=1;" parent="1" source="AeSqCJv2NYG8zxl52Ggx-15" target="AeSqCJv2NYG8zxl52Ggx-16" edge="1">
          <mxGeometry relative="1" as="geometry" />
        </mxCell>
        <mxCell id="AeSqCJv2NYG8zxl52Ggx-15" value="" style="ellipse;whiteSpace=wrap;html=1;aspect=fixed;" parent="1" vertex="1">
          <mxGeometry x="460" y="840" width="40" height="40" as="geometry" />
        </mxCell>
        <mxCell id="AeSqCJv2NYG8zxl52Ggx-39" value="" style="edgeStyle=orthogonalEdgeStyle;rounded=0;orthogonalLoop=1;jettySize=auto;html=1;" parent="1" source="AeSqCJv2NYG8zxl52Ggx-16" target="AeSqCJv2NYG8zxl52Ggx-33" edge="1">
          <mxGeometry relative="1" as="geometry" />
        </mxCell>
        <mxCell id="AeSqCJv2NYG8zxl52Ggx-48" style="edgeStyle=orthogonalEdgeStyle;rounded=0;orthogonalLoop=1;jettySize=auto;html=1;exitX=1;exitY=0.5;exitDx=0;exitDy=0;" parent="1" source="AeSqCJv2NYG8zxl52Ggx-16" target="AeSqCJv2NYG8zxl52Ggx-42" edge="1">
          <mxGeometry relative="1" as="geometry" />
        </mxCell>
        <mxCell id="AeSqCJv2NYG8zxl52Ggx-16" value="" style="ellipse;whiteSpace=wrap;html=1;aspect=fixed;" parent="1" vertex="1">
          <mxGeometry x="460" y="920" width="40" height="40" as="geometry" />
        </mxCell>
        <mxCell id="AeSqCJv2NYG8zxl52Ggx-28" value="int i = cadena.length - 1;" style="text;html=1;align=center;verticalAlign=middle;resizable=0;points=[];autosize=1;strokeColor=none;" parent="1" vertex="1">
          <mxGeometry x="680" y="90" width="140" height="20" as="geometry" />
        </mxCell>
        <mxCell id="AeSqCJv2NYG8zxl52Ggx-29" value="int j = 0;" style="text;html=1;align=center;verticalAlign=middle;resizable=0;points=[];autosize=1;strokeColor=none;" parent="1" vertex="1">
          <mxGeometry x="670" y="240" width="60" height="20" as="geometry" />
        </mxCell>
        <mxCell id="AeSqCJv2NYG8zxl52Ggx-30" value="boolean res = false;" style="text;html=1;align=center;verticalAlign=middle;resizable=0;points=[];autosize=1;strokeColor=none;" parent="1" vertex="1">
          <mxGeometry x="680" y="410" width="120" height="20" as="geometry" />
        </mxCell>
        <mxCell id="AeSqCJv2NYG8zxl52Ggx-31" value="while(j &amp;lt;= i)" style="text;html=1;align=center;verticalAlign=middle;resizable=0;points=[];autosize=1;strokeColor=none;" parent="1" vertex="1">
          <mxGeometry x="670" y="565" width="80" height="20" as="geometry" />
        </mxCell>
        <mxCell id="AeSqCJv2NYG8zxl52Ggx-32" value="" style="edgeStyle=orthogonalEdgeStyle;rounded=0;orthogonalLoop=1;jettySize=auto;html=1;" parent="1" source="AeSqCJv2NYG8zxl52Ggx-33" target="AeSqCJv2NYG8zxl52Ggx-35" edge="1">
          <mxGeometry relative="1" as="geometry" />
        </mxCell>
        <mxCell id="AeSqCJv2NYG8zxl52Ggx-33" value="" style="ellipse;whiteSpace=wrap;html=1;aspect=fixed;" parent="1" vertex="1">
          <mxGeometry x="325" y="1000" width="40" height="40" as="geometry" />
        </mxCell>
        <mxCell id="AeSqCJv2NYG8zxl52Ggx-34" value="" style="edgeStyle=orthogonalEdgeStyle;rounded=0;orthogonalLoop=1;jettySize=auto;html=1;" parent="1" source="AeSqCJv2NYG8zxl52Ggx-35" target="AeSqCJv2NYG8zxl52Ggx-37" edge="1">
          <mxGeometry relative="1" as="geometry" />
        </mxCell>
        <mxCell id="AeSqCJv2NYG8zxl52Ggx-35" value="" style="ellipse;whiteSpace=wrap;html=1;aspect=fixed;" parent="1" vertex="1">
          <mxGeometry x="325" y="1080" width="40" height="40" as="geometry" />
        </mxCell>
        <mxCell id="AeSqCJv2NYG8zxl52Ggx-36" value="" style="edgeStyle=orthogonalEdgeStyle;rounded=0;orthogonalLoop=1;jettySize=auto;html=1;" parent="1" source="AeSqCJv2NYG8zxl52Ggx-37" target="AeSqCJv2NYG8zxl52Ggx-38" edge="1">
          <mxGeometry relative="1" as="geometry" />
        </mxCell>
        <mxCell id="AeSqCJv2NYG8zxl52Ggx-37" value="" style="ellipse;whiteSpace=wrap;html=1;aspect=fixed;" parent="1" vertex="1">
          <mxGeometry x="325" y="1160" width="40" height="40" as="geometry" />
        </mxCell>
        <mxCell id="AeSqCJv2NYG8zxl52Ggx-57" style="edgeStyle=orthogonalEdgeStyle;rounded=0;orthogonalLoop=1;jettySize=auto;html=1;exitX=0.5;exitY=1;exitDx=0;exitDy=0;" parent="1" source="AeSqCJv2NYG8zxl52Ggx-38" target="AeSqCJv2NYG8zxl52Ggx-52" edge="1">
          <mxGeometry relative="1" as="geometry" />
        </mxCell>
        <mxCell id="AeSqCJv2NYG8zxl52Ggx-38" value="" style="ellipse;whiteSpace=wrap;html=1;aspect=fixed;" parent="1" vertex="1">
          <mxGeometry x="325" y="1240" width="40" height="40" as="geometry" />
        </mxCell>
        <mxCell id="AeSqCJv2NYG8zxl52Ggx-40" value="if(cadena.charAt(j) == cadena.charAt(i))" style="text;html=1;align=center;verticalAlign=middle;resizable=0;points=[];autosize=1;strokeColor=none;" parent="1" vertex="1">
          <mxGeometry x="230" y="810" width="230" height="20" as="geometry" />
        </mxCell>
        <mxCell id="AeSqCJv2NYG8zxl52Ggx-41" value="" style="edgeStyle=orthogonalEdgeStyle;rounded=0;orthogonalLoop=1;jettySize=auto;html=1;" parent="1" source="AeSqCJv2NYG8zxl52Ggx-42" target="AeSqCJv2NYG8zxl52Ggx-44" edge="1">
          <mxGeometry relative="1" as="geometry" />
        </mxCell>
        <mxCell id="AeSqCJv2NYG8zxl52Ggx-42" value="" style="ellipse;whiteSpace=wrap;html=1;aspect=fixed;" parent="1" vertex="1">
          <mxGeometry x="560" y="1000" width="40" height="40" as="geometry" />
        </mxCell>
        <mxCell id="AeSqCJv2NYG8zxl52Ggx-43" value="" style="edgeStyle=orthogonalEdgeStyle;rounded=0;orthogonalLoop=1;jettySize=auto;html=1;" parent="1" source="AeSqCJv2NYG8zxl52Ggx-44" target="AeSqCJv2NYG8zxl52Ggx-46" edge="1">
          <mxGeometry relative="1" as="geometry" />
        </mxCell>
        <mxCell id="AeSqCJv2NYG8zxl52Ggx-44" value="" style="ellipse;whiteSpace=wrap;html=1;aspect=fixed;" parent="1" vertex="1">
          <mxGeometry x="560" y="1080" width="40" height="40" as="geometry" />
        </mxCell>
        <mxCell id="AeSqCJv2NYG8zxl52Ggx-78" style="edgeStyle=orthogonalEdgeStyle;rounded=0;orthogonalLoop=1;jettySize=auto;html=1;exitX=0.5;exitY=1;exitDx=0;exitDy=0;entryX=0.5;entryY=0;entryDx=0;entryDy=0;" parent="1" source="AeSqCJv2NYG8zxl52Ggx-46" target="AeSqCJv2NYG8zxl52Ggx-61" edge="1">
          <mxGeometry relative="1" as="geometry" />
        </mxCell>
        <mxCell id="AeSqCJv2NYG8zxl52Ggx-46" value="" style="ellipse;whiteSpace=wrap;html=1;aspect=fixed;" parent="1" vertex="1">
          <mxGeometry x="560" y="1160" width="40" height="40" as="geometry" />
        </mxCell>
        <mxCell id="AeSqCJv2NYG8zxl52Ggx-49" value="j = j + 1;" style="text;html=1;align=center;verticalAlign=middle;resizable=0;points=[];autosize=1;strokeColor=none;" parent="1" vertex="1">
          <mxGeometry x="260" y="1050" width="60" height="20" as="geometry" />
        </mxCell>
        <mxCell id="AeSqCJv2NYG8zxl52Ggx-50" value="i = i - 1;" style="text;html=1;align=center;verticalAlign=middle;resizable=0;points=[];autosize=1;strokeColor=none;" parent="1" vertex="1">
          <mxGeometry x="260" y="1210" width="60" height="20" as="geometry" />
        </mxCell>
        <mxCell id="AeSqCJv2NYG8zxl52Ggx-77" style="edgeStyle=orthogonalEdgeStyle;rounded=0;orthogonalLoop=1;jettySize=auto;html=1;exitX=0.5;exitY=1;exitDx=0;exitDy=0;entryX=0;entryY=0.5;entryDx=0;entryDy=0;" parent="1" source="AeSqCJv2NYG8zxl52Ggx-52" target="AeSqCJv2NYG8zxl52Ggx-61" edge="1">
          <mxGeometry relative="1" as="geometry" />
        </mxCell>
        <mxCell id="AeSqCJv2NYG8zxl52Ggx-52" value="" style="ellipse;whiteSpace=wrap;html=1;aspect=fixed;" parent="1" vertex="1">
          <mxGeometry x="325" y="1320" width="40" height="40" as="geometry" />
        </mxCell>
        <mxCell id="AeSqCJv2NYG8zxl52Ggx-59" value="i = -100;" style="text;html=1;align=center;verticalAlign=middle;resizable=0;points=[];autosize=1;strokeColor=none;" parent="1" vertex="1">
          <mxGeometry x="600" y="1040" width="60" height="20" as="geometry" />
        </mxCell>
        <mxCell id="AeSqCJv2NYG8zxl52Ggx-79" style="edgeStyle=orthogonalEdgeStyle;rounded=0;orthogonalLoop=1;jettySize=auto;html=1;exitX=1;exitY=0.5;exitDx=0;exitDy=0;" parent="1" source="AeSqCJv2NYG8zxl52Ggx-61" target="AeSqCJv2NYG8zxl52Ggx-13" edge="1">
          <mxGeometry relative="1" as="geometry" />
        </mxCell>
        <mxCell id="AeSqCJv2NYG8zxl52Ggx-61" value="" style="ellipse;whiteSpace=wrap;html=1;aspect=fixed;" parent="1" vertex="1">
          <mxGeometry x="440" y="1400" width="40" height="40" as="geometry" />
        </mxCell>
        <mxCell id="AeSqCJv2NYG8zxl52Ggx-62" value="" style="edgeStyle=orthogonalEdgeStyle;rounded=0;orthogonalLoop=1;jettySize=auto;html=1;" parent="1" source="AeSqCJv2NYG8zxl52Ggx-63" target="AeSqCJv2NYG8zxl52Ggx-65" edge="1">
          <mxGeometry relative="1" as="geometry" />
        </mxCell>
        <mxCell id="AeSqCJv2NYG8zxl52Ggx-63" value="" style="ellipse;whiteSpace=wrap;html=1;aspect=fixed;" parent="1" vertex="1">
          <mxGeometry x="440" y="1480" width="40" height="40" as="geometry" />
        </mxCell>
        <mxCell id="AeSqCJv2NYG8zxl52Ggx-64" value="" style="edgeStyle=orthogonalEdgeStyle;rounded=0;orthogonalLoop=1;jettySize=auto;html=1;" parent="1" source="AeSqCJv2NYG8zxl52Ggx-65" target="AeSqCJv2NYG8zxl52Ggx-67" edge="1">
          <mxGeometry relative="1" as="geometry" />
        </mxCell>
        <mxCell id="AeSqCJv2NYG8zxl52Ggx-65" value="" style="ellipse;whiteSpace=wrap;html=1;aspect=fixed;" parent="1" vertex="1">
          <mxGeometry x="440" y="1560" width="40" height="40" as="geometry" />
        </mxCell>
        <mxCell id="AeSqCJv2NYG8zxl52Ggx-66" value="" style="edgeStyle=orthogonalEdgeStyle;rounded=0;orthogonalLoop=1;jettySize=auto;html=1;" parent="1" source="AeSqCJv2NYG8zxl52Ggx-67" target="AeSqCJv2NYG8zxl52Ggx-69" edge="1">
          <mxGeometry relative="1" as="geometry" />
        </mxCell>
        <mxCell id="AeSqCJv2NYG8zxl52Ggx-101" style="edgeStyle=orthogonalEdgeStyle;rounded=0;orthogonalLoop=1;jettySize=auto;html=1;exitX=0.5;exitY=1;exitDx=0;exitDy=0;entryX=0.5;entryY=0;entryDx=0;entryDy=0;" parent="1" source="AeSqCJv2NYG8zxl52Ggx-67" target="AeSqCJv2NYG8zxl52Ggx-84" edge="1">
          <mxGeometry relative="1" as="geometry" />
        </mxCell>
        <mxCell id="AeSqCJv2NYG8zxl52Ggx-67" value="" style="ellipse;whiteSpace=wrap;html=1;aspect=fixed;" parent="1" vertex="1">
          <mxGeometry x="440" y="1640" width="40" height="40" as="geometry" />
        </mxCell>
        <mxCell id="AeSqCJv2NYG8zxl52Ggx-68" value="" style="edgeStyle=orthogonalEdgeStyle;rounded=0;orthogonalLoop=1;jettySize=auto;html=1;" parent="1" source="AeSqCJv2NYG8zxl52Ggx-69" target="AeSqCJv2NYG8zxl52Ggx-71" edge="1">
          <mxGeometry relative="1" as="geometry" />
        </mxCell>
        <mxCell id="AeSqCJv2NYG8zxl52Ggx-69" value="" style="ellipse;whiteSpace=wrap;html=1;aspect=fixed;" parent="1" vertex="1">
          <mxGeometry x="280" y="1720" width="40" height="40" as="geometry" />
        </mxCell>
        <mxCell id="AeSqCJv2NYG8zxl52Ggx-70" value="" style="edgeStyle=orthogonalEdgeStyle;rounded=0;orthogonalLoop=1;jettySize=auto;html=1;" parent="1" source="AeSqCJv2NYG8zxl52Ggx-71" target="AeSqCJv2NYG8zxl52Ggx-73" edge="1">
          <mxGeometry relative="1" as="geometry" />
        </mxCell>
        <mxCell id="AeSqCJv2NYG8zxl52Ggx-71" value="" style="ellipse;whiteSpace=wrap;html=1;aspect=fixed;" parent="1" vertex="1">
          <mxGeometry x="280" y="1800" width="40" height="40" as="geometry" />
        </mxCell>
        <mxCell id="AeSqCJv2NYG8zxl52Ggx-102" style="edgeStyle=orthogonalEdgeStyle;rounded=0;orthogonalLoop=1;jettySize=auto;html=1;exitX=0.5;exitY=1;exitDx=0;exitDy=0;entryX=0;entryY=0.5;entryDx=0;entryDy=0;" parent="1" source="AeSqCJv2NYG8zxl52Ggx-73" target="AeSqCJv2NYG8zxl52Ggx-84" edge="1">
          <mxGeometry relative="1" as="geometry" />
        </mxCell>
        <mxCell id="AeSqCJv2NYG8zxl52Ggx-73" value="" style="ellipse;whiteSpace=wrap;html=1;aspect=fixed;" parent="1" vertex="1">
          <mxGeometry x="280" y="1880" width="40" height="40" as="geometry" />
        </mxCell>
        <mxCell id="AeSqCJv2NYG8zxl52Ggx-81" value="if(j == i)" style="text;html=1;align=center;verticalAlign=middle;resizable=0;points=[];autosize=1;strokeColor=none;" parent="1" vertex="1">
          <mxGeometry x="370" y="1530" width="60" height="20" as="geometry" />
        </mxCell>
        <mxCell id="AeSqCJv2NYG8zxl52Ggx-82" value="res = true" style="text;html=1;align=center;verticalAlign=middle;resizable=0;points=[];autosize=1;strokeColor=none;" parent="1" vertex="1">
          <mxGeometry x="200" y="1770" width="70" height="20" as="geometry" />
        </mxCell>
        <mxCell id="AeSqCJv2NYG8zxl52Ggx-83" style="edgeStyle=orthogonalEdgeStyle;rounded=0;orthogonalLoop=1;jettySize=auto;html=1;exitX=0.5;exitY=1;exitDx=0;exitDy=0;" parent="1" source="AeSqCJv2NYG8zxl52Ggx-84" target="AeSqCJv2NYG8zxl52Ggx-86" edge="1">
          <mxGeometry relative="1" as="geometry" />
        </mxCell>
        <mxCell id="AeSqCJv2NYG8zxl52Ggx-84" value="" style="ellipse;whiteSpace=wrap;html=1;aspect=fixed;" parent="1" vertex="1">
          <mxGeometry x="440" y="2000" width="40" height="40" as="geometry" />
        </mxCell>
        <mxCell id="AeSqCJv2NYG8zxl52Ggx-85" value="" style="edgeStyle=orthogonalEdgeStyle;rounded=0;orthogonalLoop=1;jettySize=auto;html=1;" parent="1" source="AeSqCJv2NYG8zxl52Ggx-86" target="AeSqCJv2NYG8zxl52Ggx-88" edge="1">
          <mxGeometry relative="1" as="geometry" />
        </mxCell>
        <mxCell id="AeSqCJv2NYG8zxl52Ggx-86" value="" style="ellipse;whiteSpace=wrap;html=1;aspect=fixed;" parent="1" vertex="1">
          <mxGeometry x="440" y="2080" width="40" height="40" as="geometry" />
        </mxCell>
        <mxCell id="AeSqCJv2NYG8zxl52Ggx-88" value="" style="ellipse;whiteSpace=wrap;html=1;aspect=fixed;" parent="1" vertex="1">
          <mxGeometry x="440" y="2160" width="40" height="40" as="geometry" />
        </mxCell>
        <mxCell id="AeSqCJv2NYG8zxl52Ggx-103" value="return res" style="text;html=1;align=center;verticalAlign=middle;resizable=0;points=[];autosize=1;strokeColor=none;" parent="1" vertex="1">
          <mxGeometry x="475" y="2050" width="70" height="20" as="geometry" />
        </mxCell>
        <mxCell id="LKjGg0PEltrYbveiCFjN-3" value="" style="endArrow=none;html=1;strokeColor=#FFFF33;fillColor=#FF0000;" edge="1" parent="1">
          <mxGeometry width="50" height="50" relative="1" as="geometry">
            <mxPoint x="420" y="2194.5714285714284" as="sourcePoint" />
            <mxPoint x="640" y="90" as="targetPoint" />
            <Array as="points">
              <mxPoint x="440" y="2010" />
              <mxPoint x="310" y="2010" />
              <mxPoint x="310" y="1840" />
              <mxPoint x="310" y="1680" />
              <mxPoint x="440" y="1670" />
              <mxPoint x="440" y="1550" />
              <mxPoint x="480" y="1490" />
              <mxPoint x="700" y="1510" />
              <mxPoint x="690" y="800" />
            </Array>
          </mxGeometry>
        </mxCell>
      </root>
    </mxGraphModel>
  </diagram>
</mxfile>
